# xmcd
#
# Track frame offsets: 
#        150
#        22549
#        47282
#        59570
#        80650
#        103971
#        124859
#        144822
#        159921
#        171057
#        189879
#        211116
#        233282
#        251775
#        273640
#        290599
#        311282
#
# Disc length: 4657 seconds
#
# Revision: 0
# Processed by: cddbd v1.5.2PL0 Copyright (c) Steve Scherf et al.
# Submitted via: ExactAudioCopy v0.99pb4
#
DISCID=d9122f11
DTITLE=Rolf Wikström - Rolf Wikström - Klassiker [CD2)
DYEAR=2008
DGENRE=Blues
TTITLE0=Till Min Syster
TTITLE1=Fallna Änglar
TTITLE2=Om Du Går Neråt Staden
TTITLE3=Jag Har Hört Om En Stad Ovan Molnen
TTITLE4=Är Det Därför Jag Älskar Dig Så
TTITLE5=Sofias Sång
TTITLE6=Den Blomstertid Nu Kommer
TTITLE7=En Solig Dag
TTITLE8=Sommaren Är Slut Nu
TTITLE9=November
TTITLE10=Helgdagskväll I Timmerkojan
TTITLE11=Alltför Många Gånger
TTITLE12=Kärlek Är En Lek
TTITLE13=Vad Fel Det Blev
TTITLE14=När Du Går
TTITLE15=Nog Står Jag Ut Med Livet
TTITLE16=Marknadsgycklarens Fru
EXTD=
EXTT0=
EXTT1=
EXTT2=
EXTT3=
EXTT4=
EXTT5=
EXTT6=
EXTT7=
EXTT8=
EXTT9=
EXTT10=
EXTT11=
EXTT12=
EXTT13=
EXTT14=
EXTT15=
EXTT16=
PLAYORDER=
